<svg xmlns="http://www.w3.org/2000/svg" width="180.1" height="35" viewBox="0 0 180.1 35"><rect class="svg__rect" x="0" y="0" width="86.16" height="35" fill="#EA4560"/><rect class="svg__rect" x="84.16" y="0" width="95.94" height="35" fill="#D35B09"/><path class="svg__text" d="M15.70 22L14.22 22L14.22 13.47L19.64 13.47L19.64 14.66L15.70 14.66L15.70 17.20L19.13 17.20L19.13 18.38L15.70 18.38L15.70 22ZM23.53 18.00L23.53 18.00L23.53 17.52Q23.53 16.28 23.97 15.32Q24.41 14.37 25.22 13.86Q26.02 13.35 27.07 13.35Q28.11 13.35 28.92 13.85Q29.72 14.35 30.16 15.29Q30.60 16.23 30.61 17.48L30.61 17.48L30.61 17.96Q30.61 19.21 30.17 20.16Q29.74 21.10 28.93 21.61Q28.13 22.12 27.08 22.12L27.08 22.12Q26.04 22.12 25.23 21.61Q24.42 21.10 23.98 20.17Q23.53 19.23 23.53 18.00ZM25.01 17.46L25.01 17.96Q25.01 19.36 25.56 20.13Q26.11 20.90 27.08 20.90L27.08 20.90Q28.06 20.90 28.59 20.15Q29.12 19.40 29.12 17.96L29.12 17.96L29.12 17.51Q29.12 16.09 28.59 15.34Q28.05 14.58 27.07 14.58L27.07 14.58Q26.11 14.58 25.56 15.33Q25.02 16.09 25.01 17.46L25.01 17.46ZM36.55 22L35.07 22L35.07 13.47L36.55 13.47L36.55 17.47L37.37 16.46L39.87 13.47L41.66 13.47L38.49 17.25L41.84 22L40.09 22L37.52 18.31L36.55 19.34L36.55 22ZM47.11 22L45.62 22L45.62 13.47L47.11 13.47L47.11 17.47L47.93 16.46L50.42 13.47L52.22 13.47L49.05 17.25L52.40 22L50.64 22L48.07 18.31L47.11 19.34L47.11 22ZM61.75 22L56.18 22L56.18 13.47L61.71 13.47L61.71 14.66L57.66 14.66L57.66 17.02L61.16 17.02L61.16 18.19L57.66 18.19L57.66 20.82L61.75 20.82L61.75 22ZM67.43 22L65.95 22L65.95 13.47L68.95 13.47Q70.43 13.47 71.23 14.13Q72.03 14.79 72.03 16.05L72.03 16.05Q72.03 16.90 71.62 17.48Q71.21 18.06 70.47 18.37L70.47 18.37L72.38 21.92L72.38 22L70.80 22L69.08 18.71L67.43 18.71L67.43 22ZM67.43 14.66L67.43 17.52L68.96 17.52Q69.71 17.52 70.13 17.15Q70.55 16.77 70.55 16.11L70.55 16.11Q70.55 15.43 70.16 15.05Q69.77 14.68 69.00 14.66L69.00 14.66L67.43 14.66Z" fill="#FFFFFF"/><path class="svg__text" d="M100.73 22L98.35 22L98.35 13.60L102.19 13.60Q103.33 13.60 104.17 13.98Q105.01 14.35 105.47 15.06Q105.92 15.76 105.92 16.71L105.92 16.71Q105.92 17.66 105.47 18.35Q105.01 19.05 104.17 19.42Q103.33 19.80 102.19 19.80L102.19 19.80L100.73 19.80L100.73 22ZM100.73 15.47L100.73 17.93L102.05 17.93Q102.78 17.93 103.15 17.61Q103.52 17.29 103.52 16.71L103.52 16.71Q103.52 16.12 103.15 15.80Q102.78 15.47 102.05 15.47L102.05 15.47L100.73 15.47ZM117.06 22L110.68 22L110.68 13.60L113.05 13.60L113.05 20.11L117.06 20.11L117.06 22ZM122.90 22L120.47 22L124.18 13.60L126.53 13.60L130.24 22L127.77 22L127.11 20.37L123.56 20.37L122.90 22ZM125.34 15.93L124.25 18.61L126.41 18.61L125.34 15.93ZM136.73 22L134.39 22L134.39 13.60L136.35 13.60L140.06 18.07L140.06 13.60L142.39 13.60L142.39 22L140.44 22L136.73 17.52L136.73 22ZM147.12 17.80L147.12 17.80Q147.12 16.54 147.72 15.54Q148.32 14.55 149.37 13.99Q150.42 13.43 151.74 13.43L151.74 13.43Q152.89 13.43 153.82 13.84Q154.74 14.25 155.35 15.02L155.35 15.02L153.84 16.39Q153.03 15.40 151.86 15.40L151.86 15.40Q151.18 15.40 150.64 15.70Q150.11 16 149.81 16.54Q149.52 17.09 149.52 17.80L149.52 17.80Q149.52 18.51 149.81 19.05Q150.11 19.60 150.64 19.90Q151.18 20.20 151.86 20.20L151.86 20.20Q153.03 20.20 153.84 19.22L153.84 19.22L155.35 20.58Q154.74 21.35 153.82 21.76Q152.89 22.17 151.74 22.17L151.74 22.17Q150.42 22.17 149.37 21.61Q148.32 21.05 147.72 20.05Q147.12 19.06 147.12 17.80ZM162.24 22L159.89 22L159.89 13.60L162.24 13.60L162.24 17.09L165.50 13.60L168.11 13.60L164.68 17.32L168.29 22L165.53 22L163.13 18.95L162.24 19.90L162.24 22Z" fill="#FFFFFF" x="97.16"/></svg>