<svg xmlns="http://www.w3.org/2000/svg" width="173.57" height="35" viewBox="0 0 173.57 35"><rect class="svg__rect" x="0" y="0" width="117.59" height="35" fill="#31C4F3"/><rect class="svg__rect" x="115.59" y="0" width="57.97999999999999" height="35" fill="#389AD5"/><path class="svg__text" d="M15.70 22L14.22 22L14.22 13.47L15.70 13.47L19.51 19.54L19.51 13.47L20.98 13.47L20.98 22L19.50 22L15.70 15.95L15.70 22ZM25.59 19.16L25.59 19.16L25.59 13.47L27.07 13.47L27.07 19.18Q27.07 20.03 27.50 20.48Q27.93 20.93 28.78 20.93L28.78 20.93Q30.49 20.93 30.49 19.13L30.49 19.13L30.49 13.47L31.97 13.47L31.97 19.17Q31.97 20.53 31.10 21.32Q30.23 22.12 28.78 22.12L28.78 22.12Q27.31 22.12 26.45 21.33Q25.59 20.55 25.59 19.16ZM38.01 22L36.54 22L36.54 13.47L38.46 13.47L40.92 20.01L43.37 13.47L45.29 13.47L45.29 22L43.81 22L43.81 19.19L43.96 15.43L41.44 22L40.38 22L37.87 15.43L38.01 19.19L38.01 22ZM55.61 22L50.03 22L50.03 13.47L55.57 13.47L55.57 14.66L51.51 14.66L51.51 17.02L55.02 17.02L55.02 18.19L51.51 18.19L51.51 20.82L55.61 20.82L55.61 22ZM61.29 22L59.80 22L59.80 13.47L62.80 13.47Q64.28 13.47 65.08 14.13Q65.89 14.79 65.89 16.05L65.89 16.05Q65.89 16.90 65.47 17.48Q65.06 18.06 64.32 18.37L64.32 18.37L66.24 21.92L66.24 22L64.65 22L62.94 18.71L61.29 18.71L61.29 22ZM61.29 14.66L61.29 17.52L62.81 17.52Q63.56 17.52 63.98 17.15Q64.40 16.77 64.40 16.11L64.40 16.11Q64.40 15.43 64.01 15.05Q63.62 14.68 62.85 14.66L62.85 14.66L61.29 14.66ZM71.84 22L70.37 22L70.37 13.47L71.84 13.47L71.84 22ZM76.39 18.19L76.39 18.19L76.39 17.39Q76.39 16.19 76.81 15.27Q77.24 14.35 78.04 13.85Q78.84 13.35 79.89 13.35L79.89 13.35Q81.30 13.35 82.16 14.12Q83.02 14.89 83.16 16.29L83.16 16.29L81.69 16.29Q81.58 15.37 81.15 14.96Q80.72 14.55 79.89 14.55L79.89 14.55Q78.92 14.55 78.40 15.26Q77.89 15.96 77.87 17.33L77.87 17.33L77.87 18.09Q77.87 19.47 78.37 20.20Q78.86 20.92 79.82 20.92L79.82 20.92Q80.69 20.92 81.13 20.53Q81.57 20.14 81.69 19.22L81.69 19.22L83.16 19.22Q83.04 20.59 82.16 21.35Q81.28 22.12 79.82 22.12L79.82 22.12Q78.80 22.12 78.02 21.63Q77.25 21.15 76.82 20.26Q76.40 19.37 76.39 18.19ZM88.26 22L86.72 22L89.94 13.47L91.27 13.47L94.50 22L92.95 22L92.25 20.01L88.95 20.01L88.26 22ZM90.60 15.28L89.36 18.82L91.84 18.82L90.60 15.28ZM103.81 22L98.45 22L98.45 13.47L99.93 13.47L99.93 20.82L103.81 20.82L103.81 22Z" fill="#FFFFFF"/><path class="svg__text" d="M129.19 21.24L129.19 21.24L129.97 19.49Q130.53 19.86 131.28 20.09Q132.02 20.32 132.74 20.32L132.74 20.32Q134.11 20.32 134.11 19.64L134.11 19.64Q134.11 19.28 133.72 19.11Q133.33 18.93 132.47 18.74L132.47 18.74Q131.52 18.53 130.88 18.30Q130.25 18.06 129.79 17.55Q129.34 17.03 129.34 16.16L129.34 16.16Q129.34 15.39 129.76 14.77Q130.18 14.15 131.01 13.79Q131.85 13.43 133.05 13.43L133.05 13.43Q133.88 13.43 134.69 13.62Q135.49 13.80 136.11 14.17L136.11 14.17L135.37 15.93Q134.17 15.28 133.04 15.28L133.04 15.28Q132.33 15.28 132.01 15.49Q131.69 15.70 131.69 16.04L131.69 16.04Q131.69 16.37 132.07 16.54Q132.46 16.71 133.31 16.89L133.31 16.89Q134.27 17.10 134.90 17.33Q135.53 17.56 135.99 18.07Q136.45 18.58 136.45 19.46L136.45 19.46Q136.45 20.21 136.03 20.83Q135.61 21.44 134.77 21.80Q133.93 22.17 132.73 22.17L132.73 22.17Q131.71 22.17 130.75 21.92Q129.79 21.67 129.19 21.24ZM145.00 22L141.03 22L141.03 13.60L145.00 13.60Q146.38 13.60 147.45 14.12Q148.52 14.63 149.11 15.58Q149.69 16.53 149.69 17.80L149.69 17.80Q149.69 19.07 149.11 20.02Q148.52 20.97 147.45 21.48Q146.38 22 145.00 22L145.00 22ZM143.41 15.50L143.41 20.10L144.91 20.10Q145.98 20.10 146.64 19.49Q147.29 18.88 147.29 17.80L147.29 17.80Q147.29 16.72 146.64 16.11Q145.98 15.50 144.91 15.50L144.91 15.50L143.41 15.50ZM161.17 22L154.42 22L154.42 13.60L161.01 13.60L161.01 15.44L156.78 15.44L156.78 16.85L160.51 16.85L160.51 18.63L156.78 18.63L156.78 20.17L161.17 20.17L161.17 22Z" fill="#FFFFFF" x="128.59"/></svg>